<?xml version="1.0" encoding="UTF-8"?>
<svg fill="#000000" version="1.1" xmlns="http://www.w3.org/2000/svg" width="512" height="512">
<path d="M0 0 C0.9355925 -0.00974854 1.871185 -0.01949707 2.83512878 -0.02954102 C23.24416486 -0.1984297 42.96079539 -0.03089418 63.0078125 4.23828125 C63.93158691 4.42551758 64.85536133 4.61275391 65.80712891 4.80566406 C101.4803425 12.13655694 136.04867954 27.05718327 165.0078125 49.23828125 C165.5857959 49.67495117 166.1637793 50.11162109 166.75927734 50.56152344 C175.26586251 57.002323 183.31244993 63.84319145 191.0078125 71.23828125 C191.60239258 71.80562988 192.19697266 72.37297852 192.80957031 72.95751953 C201.15799553 80.96365501 208.80764092 89.18319073 215.69726562 98.47900391 C217.02578341 100.26240538 218.38141287 102.02237641 219.7421875 103.78125 C227.10148221 113.40694237 233.21551204 123.60687263 239.0078125 134.23828125 C239.3697168 134.89876465 239.73162109 135.55924805 240.10449219 136.23974609 C257.60985188 168.57859478 268.92626162 206.31643928 269.24609375 243.23046875 C269.25584229 244.16606125 269.26559082 245.10165375 269.27563477 246.06559753 C269.44452345 266.47463361 269.27698793 286.19126414 265.0078125 306.23828125 C264.82057617 307.16205566 264.63333984 308.08583008 264.44042969 309.03759766 C257.10953681 344.71081125 242.18891048 379.27914829 220.0078125 408.23828125 C219.57114258 408.81626465 219.13447266 409.39424805 218.68457031 409.98974609 C212.24377075 418.49633126 205.4029023 426.54291868 198.0078125 434.23828125 C197.44046387 434.83286133 196.87311523 435.42744141 196.28857422 436.04003906 C188.28243874 444.38846428 180.06290302 452.03810967 170.76708984 458.92773438 C168.98368837 460.25625216 167.22371734 461.61188162 165.46484375 462.97265625 C155.83915138 470.33195096 145.63922112 476.44598079 135.0078125 482.23828125 C134.3473291 482.60018555 133.6868457 482.96208984 133.00634766 483.33496094 C100.66749897 500.84032063 62.92965447 512.15673037 26.015625 512.4765625 C25.0800325 512.48631104 24.14444 512.49605957 23.18049622 512.50610352 C2.77146014 512.6749922 -16.94517039 512.50745668 -36.9921875 508.23828125 C-37.91596191 508.05104492 -38.83973633 507.86380859 -39.79150391 507.67089844 C-75.4647175 500.34000556 -110.03305454 485.41937923 -138.9921875 463.23828125 C-139.5701709 462.80161133 -140.1481543 462.36494141 -140.74365234 461.91503906 C-149.25023751 455.4742395 -157.29682493 448.63337105 -164.9921875 441.23828125 C-165.58676758 440.67093262 -166.18134766 440.10358398 -166.79394531 439.51904297 C-175.14237053 431.51290749 -182.79201592 423.29337177 -189.68164062 413.99755859 C-191.01015841 412.21415712 -192.36578787 410.45418609 -193.7265625 408.6953125 C-201.08585721 399.06962013 -207.19988704 388.86968987 -212.9921875 378.23828125 C-213.3540918 377.57779785 -213.71599609 376.91731445 -214.08886719 376.23681641 C-231.59422688 343.89796772 -242.91063662 306.16012322 -243.23046875 269.24609375 C-243.24021729 268.31050125 -243.24996582 267.37490875 -243.26000977 266.41096497 C-243.42889845 246.00192889 -243.26136293 226.28529836 -238.9921875 206.23828125 C-238.80495117 205.31450684 -238.61771484 204.39073242 -238.42480469 203.43896484 C-231.09391181 167.76575125 -216.17328548 133.19741421 -193.9921875 104.23828125 C-193.55551758 103.66029785 -193.11884766 103.08231445 -192.66894531 102.48681641 C-186.22814575 93.98023124 -179.3872773 85.93364382 -171.9921875 78.23828125 C-171.42483887 77.64370117 -170.85749023 77.04912109 -170.27294922 76.43652344 C-162.26681374 68.08809822 -154.04727802 60.43845283 -144.75146484 53.54882812 C-142.96806337 52.22031034 -141.20809234 50.86468088 -139.44921875 49.50390625 C-129.82352638 42.14461154 -119.62359612 36.03058171 -108.9921875 30.23828125 C-108.3317041 29.87637695 -107.6712207 29.51447266 -106.99072266 29.14160156 C-74.65187397 11.63624187 -36.91402947 0.31983213 0 0 Z M-10.77352905 158.40489197 C-11.48978915 159.11546881 -12.20604924 159.82604565 -12.94401419 160.55815512 C-15.32021467 162.92152652 -17.6782405 165.30220606 -20.03662109 167.68334961 C-21.74481229 169.3896754 -23.45409026 171.09491382 -25.16436768 172.79914856 C-29.3114501 176.93730878 -33.44689099 181.08687877 -37.57702129 185.24194043 C-42.3919506 190.08489761 -47.22024574 194.91443821 -52.0491211 199.74348325 C-60.66551912 208.36106656 -69.2699939 216.99045613 -77.86767578 225.62670898 C-86.20300208 233.99940477 -94.54635639 242.36398752 -102.89892578 250.71948242 C-103.67119836 251.49202921 -103.67119836 251.49202921 -104.4590724 252.28018301 C-104.9730499 252.79433948 -105.48702741 253.30849596 -106.01657999 253.83823293 C-107.05153519 254.87355357 -108.08648693 255.90887768 -109.12143517 256.94420528 C-109.63188608 257.45484172 -110.142337 257.96547815 -110.66825613 258.49158841 C-118.6404406 266.46734559 -126.60517996 274.45053484 -134.5691899 282.43445326 C-137.45148248 285.32375805 -140.33488531 288.21194951 -143.21910541 291.09933012 C-148.22096668 296.10672041 -153.21770726 301.11916328 -158.20883942 306.1372509 C-159.86637688 307.80222554 -161.52560039 309.46552362 -163.18662643 311.12701797 C-165.4533342 313.39498454 -167.71379497 315.66899985 -169.9727478 317.94468689 C-170.63130024 318.60082425 -171.28985268 319.2569616 -171.96836126 319.93298191 C-178.43122923 326.47096648 -182.09595002 331.58033645 -182.2421875 340.98828125 C-182.14253778 348.44389195 -180.92382883 353.46007612 -175.8046875 358.98828125 C-168.73024929 365.40224286 -163.10920551 366.682672 -153.5546875 366.76953125 C-143.81262434 365.31676745 -137.9890608 358.81635431 -131.33764648 352.1171875 C-130.29133681 351.07794514 -129.24418914 350.03954589 -128.1962738 349.00192261 C-125.369261 346.19730787 -122.55499795 343.38022563 -119.74362063 340.55994797 C-117.39365006 338.20485352 -115.0374853 335.85600565 -112.68131596 333.50711536 C-107.12704143 327.96980522 -101.58306856 322.42233115 -96.0456543 316.86816406 C-90.32986142 311.1354034 -84.59779826 305.41929303 -78.85742325 299.71115589 C-73.92593343 294.80631618 -69.00416015 289.89187858 -64.09022957 284.96944714 C-61.15644392 282.03072504 -58.2191729 279.09571763 -55.27270317 276.16970825 C-52.50762309 273.42291663 -49.75486572 270.6643532 -47.01128578 267.89609146 C-46.00093352 266.88071197 -44.98626773 265.86960446 -43.96710968 264.86306381 C-42.58065924 263.49243322 -41.21094587 262.10493277 -39.8422699 260.71655273 C-38.68395236 259.55735573 -38.68395236 259.55735573 -37.50223446 258.3747406 C-35.73537678 256.379465 -35.73537678 256.379465 -36.24049473 254.1078186 C-36.48855334 253.49087128 -36.73661196 252.87392395 -36.9921875 252.23828125 C-37.82946298 240.92871048 -38.73298424 228.36909903 -32.9921875 218.23828125 C-32.47140625 217.29984375 -31.950625 216.36140625 -31.4140625 215.39453125 C-24.3087843 203.48838941 -14.79120829 195.22723217 -1.2421875 191.30078125 C13.00734164 188.29793545 27.19294663 189.56718696 39.8203125 196.98828125 C51.30817947 204.56480304 60.16568435 215.4397491 63.0078125 229.23828125 C63.25398867 233.13889394 63.24220461 237.01892832 63.1953125 240.92578125 C63.1943457 242.47362305 63.1943457 242.47362305 63.19335938 244.05273438 C63.14759289 251.8889735 63.14759289 251.8889735 62.25810337 254.11178589 C61.75086722 256.37991233 61.75086722 256.37991233 63.51785946 258.3747406 C64.29007115 259.1475386 65.06228285 259.92033661 65.8578949 260.71655273 C66.73685928 261.60817108 67.61582367 262.49978943 68.52142334 263.41842651 C69.51330494 264.39899042 70.50544004 265.37929797 71.49780273 266.359375 C72.53004562 267.39675404 73.56121492 268.43520231 74.59138489 269.47463989 C77.39852098 272.3003472 80.22122514 275.11001521 83.04744983 277.91661453 C86.00368198 280.85648639 88.94732676 283.80891512 91.89283752 286.75952148 C96.84678652 291.71799756 101.810858 296.66616287 106.78100586 301.60839844 C112.51851321 307.31393068 118.23990934 313.03523297 123.95279926 318.76540661 C129.45213552 324.280644 134.96275903 329.78446966 140.47856331 335.28323364 C142.82295678 337.62077284 145.16337306 339.96218896 147.50063896 342.30685425 C150.26004568 345.07395841 153.02924554 347.83088473 155.80610466 350.58047104 C156.82049802 351.58801266 157.83156599 352.59891582 158.83891678 353.61349869 C167.79047826 362.65082045 167.79047826 362.65082045 179.5703125 366.76953125 C189.12483051 366.682672 194.74587429 365.40224286 201.8203125 358.98828125 C207.62025323 352.72487493 208.54838894 346.45435829 208.28515625 338.0625 C207.2395527 327.41501596 197.9470765 320.02926945 190.7727356 312.8493042 C190.07890081 312.15108716 189.38506603 311.45287013 188.67020595 310.733495 C186.36597914 308.4160114 184.05827344 306.10202569 181.75048828 303.78808594 C180.08902778 302.11871469 178.4277471 300.44916447 176.76663208 298.77944946 C171.33254632 293.31927664 165.89312414 287.86443662 160.453125 282.41015625 C158.57646874 280.5281366 156.69981955 278.64610989 154.82317734 276.76407623 C147.01890383 268.93800103 139.2130732 261.1134826 131.40345955 253.29273605 C129.38304841 251.26939577 127.36265359 249.24603918 125.34228516 247.22265625 C124.84019995 246.71982499 124.33811474 246.21699374 123.82081483 245.69892517 C115.67770083 237.54314224 107.54493449 229.37712033 99.41631974 221.206889 C91.05540968 212.80352675 82.68507062 204.40964921 74.30551898 196.02487493 C69.60691058 191.32285851 64.91280254 186.61649313 60.22873306 181.89998627 C55.8253644 177.46655729 51.41028372 173.04513782 46.98597336 168.63261032 C45.36634856 167.01320635 43.75098365 165.38952873 42.14027405 163.76125717 C39.93722211 161.53550152 37.71919958 159.32579452 35.49685669 157.11932373 C34.86638589 156.47497084 34.23591509 155.83061796 33.58633912 155.16673923 C27.89036457 149.57016963 21.25516459 145.66430179 13.0703125 145.67578125 C12.15378906 145.65386719 11.23726562 145.63195312 10.29296875 145.609375 C1.66711623 147.26069754 -4.76581141 152.27425802 -10.77352905 158.40489197 Z M-1.8671875 225.36328125 C-5.99654804 229.9439905 -7.86802597 234.66458848 -8.08203125 240.82421875 C-7.71666938 247.0634753 -6.10704737 251.16620791 -1.5703125 255.640625 C3.98339256 260.57884213 8.96449753 261.7637183 16.22265625 261.6171875 C22.0042663 260.83062905 26.04634666 257.52758518 29.8828125 253.30078125 C33.5244594 248.05252542 34.55607479 243.59812381 34.0078125 237.23828125 C32.63250421 231.60811293 30.47778313 228.05410984 26.0078125 224.23828125 C25.0796875 223.40296875 25.0796875 223.40296875 24.1328125 222.55078125 C15.53086484 217.23781358 5.42628423 218.68921264 -1.8671875 225.36328125 Z M-24.59939575 280.60498047 C-25.55203812 281.56428467 -25.55203812 281.56428467 -26.52392578 282.54296875 C-27.24452179 283.26371582 -27.9651178 283.98446289 -28.70755005 284.72705078 C-29.87325027 285.90823486 -29.87325027 285.90823486 -31.0625 287.11328125 C-31.85872772 287.91233887 -32.65495544 288.71139648 -33.47531128 289.53466797 C-36.02731502 292.09790244 -38.5722928 294.66799031 -41.1171875 297.23828125 C-42.84199092 298.97311072 -44.56724549 300.70749178 -46.29296875 302.44140625 C-50.53129798 306.70183421 -54.76387292 310.96791523 -58.9921875 315.23828125 C-54.87888879 320.14302026 -50.60676289 324.76023405 -46.0625 329.265625 C-45.42730438 329.89940567 -44.79210876 330.53318634 -44.13766479 331.18617249 C-42.13320034 333.18509531 -40.12526536 335.18048909 -38.1171875 337.17578125 C-36.74716361 338.54078258 -35.37736976 339.90601485 -34.0078125 341.27148438 C-30.67192207 344.59642336 -27.33291714 347.91820478 -23.9921875 351.23828125 C-18.57593194 346.68302935 -18.57593194 346.68302935 -13.52734375 341.73046875 C-12.66786133 340.83908203 -12.66786133 340.83908203 -11.79101562 339.9296875 C-10.63141246 338.71660433 -9.47776026 337.49780508 -8.33007812 336.2734375 C-2.31085699 330.07181572 4.06935072 326.56751204 12.7578125 325.98828125 C24.70939398 326.16599993 32.54663279 334.48962892 40.3828125 342.48828125 C41.21425781 343.32875 42.04570312 344.16921875 42.90234375 345.03515625 C44.94212797 347.09838627 46.97707536 349.16615248 49.0078125 351.23828125 C53.91255151 347.12498254 58.5297653 342.85285664 63.03515625 338.30859375 C63.98582726 337.35580032 63.98582726 337.35580032 64.95570374 336.38375854 C66.95462656 334.37929409 68.95002034 332.37135911 70.9453125 330.36328125 C72.31031383 328.99325736 73.6755461 327.62346351 75.04101562 326.25390625 C78.36595461 322.91801582 81.68773603 319.57901089 85.0078125 316.23828125 C80.83003485 311.2523525 76.47653973 306.57123841 71.859375 301.9921875 C70.87328751 301.00822243 70.87328751 301.00822243 69.86727905 300.00437927 C67.79148388 297.93412857 65.71221823 295.86740474 63.6328125 293.80078125 C62.2146117 292.38760263 60.79664074 290.97419331 59.37890625 289.56054688 C55.92452473 286.1171206 52.4670288 282.67685026 49.0078125 279.23828125 C45.86459596 280.46196641 43.15646582 281.69493953 40.3828125 283.61328125 C28.75589019 291.08457353 14.83352106 293.18648208 1.3828125 290.51953125 C-6.04959986 288.34590122 -12.97883484 285.36470515 -19.11328125 280.5859375 C-21.5422421 278.84375145 -22.29385052 278.6444462 -24.59939575 280.60498047 Z " transform="translate(242.9921875,-0.23828125)"/>
</svg>
