<?xml version="1.0" encoding="UTF-8"?>
<svg version="1.1" xmlns="http://www.w3.org/2000/svg" width="256" height="256">
<path d="M0 0 C1.79799878 2.16032056 3.18258972 4.11413044 4.64331055 6.4753418 C12.62749307 17.86435592 21.72708958 27.99152164 35.96392822 30.57183838 C53.77874667 32.82165628 71.98915986 31.86027544 89.87921798 31.08877361 C97.64789189 30.75976422 105.4174458 30.60398348 113.19139063 30.45938456 C129.13564992 30.1590977 145.06598824 29.65173437 161 29 C159.75283203 27.80503906 159.75283203 27.80503906 158.48046875 26.5859375 C157.38241192 25.51603597 156.28477797 24.4457003 155.1875 23.375 C154.36668945 22.59189453 154.36668945 22.59189453 153.52929688 21.79296875 C150.1544387 18.47947163 147.76487969 15.47722111 146 11 C146 6.62433957 146.52915222 4.61882851 149.1875 1.125 C152.40287167 -1.30439193 153.98099567 -2 158 -2 C164.24604009 0.05424477 168.00464154 3.41680539 172.578125 8.046875 C173.27137878 8.73630188 173.96463257 9.42572876 174.67889404 10.13604736 C176.13590114 11.59034329 177.58791247 13.04965967 179.03515625 14.51367188 C181.24314994 16.7430835 183.47166804 18.95035157 185.703125 21.15625 C187.1210759 22.57684431 188.53778538 23.99867905 189.953125 25.421875 C190.6156427 26.07629578 191.2781604 26.73071655 191.96075439 27.40496826 C195.83547757 31.35876484 198.34874543 34.67681385 200 40 C199.34661816 43.32135767 198.50686403 45.98627194 197 49 C196.34 49 195.68 49 195 49 C194.67 49.99 194.34 50.98 194 52 C191.5625 54.6875 191.5625 54.6875 189 57 C188.34 57 187.68 57 187 57 C187 57.66 187 58.32 187 59 C185.01739574 60.68732277 183.0167658 62.35366057 181 64 C180.67 64.66 180.34 65.32 180 66 C179.34 66 178.68 66 178 66 C177.75378906 66.58523437 177.50757813 67.17046875 177.25390625 67.7734375 C175.80626232 70.34402017 174.20757518 71.75455693 171.9375 73.625 C169.02124288 75.95485552 169.02124288 75.95485552 167 79 C166.34 79 165.68 79 165 79 C165 79.66 165 80.32 165 81 C160.8506805 83.20167973 159.03541912 84.15794529 154.3125 83.4375 C150.88386501 81.9496018 149.14099657 81.0468028 147 78 C145.76566076 73.91125126 145.7121895 71.74830731 147.25 67.75 C151.22493855 62.32962925 156.24707692 57.75292308 161 53 C125.36 53 89.72 53 53 53 C71.08254403 71.51975299 71.08254403 71.51975299 89.23632812 89.96875 C96.65828762 97.47962642 104.07188223 104.99759575 111.43481445 112.56640625 C116.79797462 118.07945519 122.18732166 123.56528295 127.60924524 129.02057266 C130.47739607 131.90821816 133.33104672 134.80740601 136.15367317 137.73962402 C138.81606268 140.5045212 141.51233903 143.23138266 144.23763466 145.93424988 C145.22669259 146.92740476 146.20315139 147.93331023 147.16487503 148.95295715 C151.88640629 153.94429208 155.7830369 157.43635807 162.88336033 157.8863945 C167.92416732 157.94361496 170.91745727 157.88384965 174.91279602 154.62182713 C177.463696 151.41753141 177.54906334 150.00868442 177.34204102 145.96655273 C177.27467491 144.17198891 177.27467491 144.17198891 177.20594788 142.34117126 C177.13927414 141.05167068 177.0726004 139.7621701 177.00390625 138.43359375 C176.96614355 137.07630985 176.93360061 135.71887176 176.9059906 134.36134338 C176.788308 128.62055941 176.64998524 122.88461542 176.33862305 117.15063477 C175.02215888 91.90585666 175.02215888 91.90585666 182.47998047 82.51220703 C187.15645822 77.48396814 192.21977735 72.74317025 198 69 C198.66 69 199.32 69 200 69 C200.04645583 79.40563275 200.08193635 89.81124059 200.10362434 100.21695614 C200.11403644 105.04937862 200.12814841 109.88172985 200.15087891 114.71411133 C200.17269936 119.38253538 200.18458797 124.05089113 200.18975449 128.71936226 C200.19343377 130.49543901 200.2006183 132.27151227 200.21146011 134.04755974 C200.22609755 136.54602854 200.22797287 139.04421944 200.22705078 141.54272461 C200.23424133 142.26777695 200.24143188 142.99282928 200.24884033 143.73985291 C200.20778578 154.10184201 197.45605788 163.16385718 190.26171875 170.859375 C186.81616149 173.94586088 183.25575701 176.13161887 179 178 C181.91064119 181.5759306 184.90701959 184.94456387 188.22265625 188.1484375 C188.80055908 188.70958252 189.37846191 189.27072754 189.97387695 189.84887695 C191.14224737 190.97613358 192.31900644 192.09477081 193.50463867 193.20385742 C196.94919526 196.53542811 199.05038634 199.13662145 200 204 C198.7760971 207.97768442 197.84299722 209.53166821 194.1875 211.5625 C189.96266929 212.14237872 188.65136384 211.22046845 185 209 C182.12294561 206.54865924 179.47515163 203.88853092 176.81304932 201.2074585 C176.00487408 200.40537437 175.19669885 199.60329024 174.36403346 198.77690053 C171.65770457 196.08722141 168.96221763 193.3869358 166.26660156 190.68652344 C164.3295221 188.75514641 162.39023618 186.82599004 160.45109558 184.89668274 C155.73226041 180.19888594 151.0216965 175.49287947 146.314262 170.78366128 C142.48806522 166.9561563 138.65932012 163.13121884 134.82875824 159.30808258 C133.72494387 158.20636742 132.62113031 157.10465146 131.51731753 156.00293469 C130.96790794 155.45456863 130.41849834 154.90620256 129.85243997 154.34121934 C119.46611618 143.9737908 109.08977828 133.59641174 98.71631131 123.21612135 C89.22630433 113.72053692 79.72315741 104.2382273 70.21382716 94.76199767 C60.44760953 85.02951132 50.69070239 75.28777909 40.94364715 65.53610063 C35.47206617 60.06227472 29.99680147 54.59225724 24.51166534 49.13201141 C19.84301821 44.48436985 15.1831671 39.82812539 10.5344747 35.16052118 C8.16272324 32.77960798 5.78592748 30.40439426 3.4006176 28.03701973 C0.81504117 25.46954999 -1.75469817 22.88720676 -4.32098389 20.30047607 C-5.45588151 19.18435523 -5.45588151 19.18435523 -6.61370635 18.04568648 C-10.71088849 13.87804861 -13.16459142 10.86412904 -14 5 C-12.824424 2.06105999 -11.67789455 0.55684195 -9.25 -1.4375 C-5.66718756 -2.33320311 -3.395935 -1.3397941 0 0 Z " fill="#000000" transform="translate(35,23)"/>
<path d="M0 0 C5.66129431 4.69766975 10.85228904 9.74723372 16 15 C15.67 15.66 15.34 16.32 15 17 C14.98203966 18.89790632 15.03152819 20.79658907 15.11206055 22.69287109 C15.33673927 28.7197593 15.48052802 34.74048043 15.56296062 40.77055931 C15.61761292 44.41252348 15.70723181 48.04620147 15.88110352 51.68457031 C17.04781266 77.00423217 17.04781266 77.00423217 9.50244141 86.50097656 C4.83090096 91.52359516 -0.22540793 96.26162832 -6 100 C-6.66 100 -7.32 100 -8 100 C-8.04645583 89.59436725 -8.08193635 79.18875941 -8.10362434 68.78304386 C-8.11403644 63.95062138 -8.12814841 59.11827015 -8.15087891 54.28588867 C-8.17269936 49.61746462 -8.18458797 44.94910887 -8.18975449 40.28063774 C-8.19343377 38.50456099 -8.2006183 36.72848773 -8.21146011 34.95244026 C-8.22609755 32.45397146 -8.22797287 29.95578056 -8.22705078 27.45727539 C-8.23424133 26.73222305 -8.24143188 26.00717072 -8.24884033 25.26014709 C-8.21902583 17.73509805 -7.01549643 10.82826623 -2.875 4.4375 C-2.33617187 3.59058594 -1.79734375 2.74367188 -1.2421875 1.87109375 C-0.83226562 1.25363281 -0.42234375 0.63617188 0 0 Z " fill="#000000" transform="translate(29,64)"/>
<path d="M0 0 C3.17921096 2.41896486 4.6866752 4.09919119 6 7.875 C6 12.61278576 4.4014321 16.26222419 1.4375 19.9375 C0 21 0 21 -2 21 C-2 21.66 -2 22.32 -2 23 C-2.66 23 -3.32 23 -4 23 C-4.495 24.485 -4.495 24.485 -5 26 C-6.4375 27.6875 -6.4375 27.6875 -8 29 C-8.66 29 -9.32 29 -10 29 C-10 29.66 -10 30.32 -10 31 C-8.92941345 30.95558777 -7.8588269 30.91117554 -6.75579834 30.86541748 C3.41998107 30.45690313 13.594065 30.15877142 23.77623367 29.96375656 C29.00977863 29.86010136 34.23662262 29.72004513 39.46630859 29.49121094 C77.91342952 27.85131975 77.91342952 27.85131975 89.27508545 38.14630127 C99 48.708632 99 48.708632 99 53 C45.54 53.495 45.54 53.495 -9 54 C-5.04 57.96 -1.08 61.92 3 66 C6 73 6 73 5.4375 76.6875 C3.9624108 80.08661858 2.99036407 81.84029262 0 84 C-4.29365825 85.43121942 -6.99765137 84.9515526 -11.08410645 83.10412598 C-14.76895551 80.98055415 -17.60744713 77.96055805 -20.578125 74.953125 C-21.27137878 74.26369812 -21.96463257 73.57427124 -22.67889404 72.86395264 C-24.13590114 71.40965671 -25.58791247 69.95034033 -27.03515625 68.48632812 C-29.24314994 66.2569165 -31.47166804 64.04964843 -33.703125 61.84375 C-35.1210759 60.42315569 -36.53778538 59.00132095 -37.953125 57.578125 C-38.94690155 56.59649384 -38.94690155 56.59649384 -39.96075439 55.59503174 C-43.83799989 51.63866136 -46.42900506 48.35923153 -48 43 C-47.87976258 38.20534717 -46.53359621 35.88778075 -43.265625 32.46875 C-42.45158203 31.60894531 -41.63753906 30.74914062 -40.79882812 29.86328125 C-39.8667813 28.90797927 -38.93379047 27.95359767 -38 27 C-36.96789703 25.93118454 -35.93600396 24.86216635 -34.90429688 23.79296875 C-32.1205698 20.92223064 -29.31005004 18.07941139 -26.48730469 15.24707031 C-24.7317091 13.48160628 -22.98706337 11.70573926 -21.2421875 9.9296875 C-20.11523979 8.79622194 -18.98765873 7.66338566 -17.859375 6.53125 C-17.34469666 6.00422485 -16.83001831 5.47719971 -16.29974365 4.9342041 C-11.09803289 -0.23571997 -7.22288037 -1.9347001 0 0 Z " fill="#000000" transform="translate(69,150)"/>
</svg>
